<?xml version="1.0" encoding="utf-8"?>
<!-- Generator: Adobe Illustrator 25.4.1, SVG Export Plug-In . SVG Version: 6.00 Build 0)  -->
<svg version="1.1" id="Слой_1" xmlns="http://www.w3.org/2000/svg" xmlns:xlink="http://www.w3.org/1999/xlink" x="0px" y="0px"
	 viewBox="0 0 26.2 23.8" style="enable-background:new 0 0 26.2 23.8;" xml:space="preserve">
<g id="Слой_2_00000127042793531835979080000007322176973842079382_">
	<g id="Слой_1-2">
		<path d="M10.5,18.8c1.3,0.3,2.2,1.6,1.9,2.9c-0.2,1.4-1.5,2.3-2.9,2c-1-0.2-1.9-1-2-2c-0.2-1.3,0.4-2.3,1.9-2.9H9.1H7
			c-0.4,0.1-0.7-0.2-0.7-0.5c0,0,0-0.1,0-0.1C5.3,13.4,4.3,8.7,3.4,4L3.3,3.8h-2c-0.2,0-0.4,0-0.6,0C0.4,3.8,0,3.6,0,3.2
			c0,0,0,0,0,0c0-0.3,0.2-0.6,0.6-0.7c0,0,0,0,0.1,0h3.1c0.4-0.1,0.7,0.2,0.7,0.6c0,0,0,0,0,0.1C4.6,3.7,4.8,4.4,4.9,5h3.8
			c0.2,0,13.6,0,13.8,0h3c0.6,0,0.9,0.3,0.7,0.9c-0.8,4.1-1.6,8.2-2.5,12.3c0,0.4-0.3,0.6-0.7,0.6c0,0,0,0,0,0h-2.5
			c1.6,0.7,2.2,1.7,1.9,3c-0.3,1.4-1.6,2.2-3,1.9c-1-0.2-1.7-1-1.9-1.9c-0.3-1.3,0.4-2.3,1.9-3L10.5,18.8z M6.9,15h16.2l1.8-8.7
			l-19.7,0L6.9,15z M7.4,17.5h15c0.1,0,0.2-0.1,0.2-0.1c0.1-0.4,0.1-0.7,0.2-1.1H7.1L7.4,17.5z M10,22.5c0.7,0,1.3-0.6,1.3-1.3
			c0-0.7-0.6-1.3-1.3-1.3c-0.7,0-1.2,0.6-1.2,1.2S9.3,22.5,10,22.5L10,22.5z M21.2,21.3c0-0.7-0.5-1.3-1.2-1.3c0,0,0,0,0,0
			c-0.7,0-1.2,0.6-1.2,1.2s0.6,1.2,1.2,1.2C20.7,22.5,21.2,21.9,21.2,21.3L21.2,21.3z"/>
	</g>
</g>
</svg>
