<svg xmlns="http://www.w3.org/2000/svg" viewBox="0 0 26.22 23.76"><defs><style>.cls-1{fill:none;}</style></defs><g id="Слой_2" data-name="Слой 2"><g id="Слой_1-2" data-name="Слой 1"><path class="cls-1" d="M10.5,18.78a2.56,2.56,0,0,1,1.95,2.92,2.49,2.49,0,0,1-4.91,0c-.25-1.26.43-2.33,1.9-2.93l-.3,0H7a.65.65,0,0,1-.75-.63Q4.81,11.07,3.41,4l-.07-.24h-2c-.21,0-.43,0-.64,0A.63.63,0,0,1,0,3.16a.62.62,0,0,1,.66-.65H3.77a.65.65,0,0,1,.74.61c.12.62.24,1.24.37,1.89H8.73c.21,0,.32,0,.39-.27a6.83,6.83,0,0,1,13,0,.31.31,0,0,0,.36.25h3c.63,0,.86.27.74.88Q25,12,23.74,18.17a.64.64,0,0,1-.72.59h-2.5c1.57.71,2.2,1.72,1.92,3a2.5,2.5,0,0,1-4.89,0c-.28-1.26.36-2.27,1.88-3Zm5.11-6.28A5.62,5.62,0,1,0,10,6.85,5.6,5.6,0,0,0,15.61,12.5ZM6.86,15H23.11l1.77-8.7H22.5a7.53,7.53,0,0,1-.69,3.6,6.87,6.87,0,0,1-2.43,2.75,6.66,6.66,0,0,1-3.47,1.11,6.61,6.61,0,0,1-4.35-1.32A6.94,6.94,0,0,1,8.74,6.28H5.14Zm.53,2.52h15c.08,0,.21-.06.22-.12.09-.35.15-.71.23-1.09H7.14Zm2.62,5A1.25,1.25,0,0,0,10,20a1.25,1.25,0,1,0,0,2.5Zm11.23-1.26A1.25,1.25,0,0,0,20,20a1.25,1.25,0,1,0,0,2.5A1.25,1.25,0,0,0,21.24,21.25Z"/><path class="cls-1" d="M15,6.26v-3a.63.63,0,1,1,1.24,0v3h3c.45,0,.75.26.74.64s-.29.6-.73.6h-3v3a.64.64,0,0,1-.61.72c-.37,0-.63-.28-.63-.73v-3H12c-.43,0-.72-.24-.72-.61A.64.64,0,0,1,12,6.27h3Z"/></g></g></svg>