<svg xmlns="http://www.w3.org/2000/svg" viewBox="0 0 219.19 29.17"><defs><style>.cls-1{fill:#fff;}.cls-2{fill:#ff0;}.cls-3{fill:#8600ff;}.cls-4{fill:#ff8000;}.cls-5{fill:#79cd2e;}.cls-6{fill:#f0f;}.cls-7{fill:#00c4ff;}</style></defs><g id="Слой_2" data-name="Слой 2"><g id="Слой_1-2" data-name="Слой 1"><path class="cls-1" d="M65.58,6.74l.24-1.24q-.19-2.58-3.49-2.58A4.6,4.6,0,0,0,59,4.28,4,4,0,0,0,57.6,7.15a3.43,3.43,0,0,0,1.26,2.63,14,14,0,0,0,3.06,2c1.2.59,2.39,1.23,3.59,1.91a10.29,10.29,0,0,1,3.06,2.66A5.79,5.79,0,0,1,69.84,20a7.82,7.82,0,0,1-3.35,6.69,12,12,0,0,1-7.22,2.44,13.37,13.37,0,0,1-6.46-1.41,4.58,4.58,0,0,1-2.58-4.28,4.19,4.19,0,0,1,1.05-2.77,3.73,3.73,0,0,1,3-1.24,2.35,2.35,0,0,1,1.38.43A1.74,1.74,0,0,1,56.45,21c0,.48-.29.72-.86.72-1.09,0-1.63.46-1.63,1.39A3.93,3.93,0,0,0,55.47,26a6,6,0,0,0,4.11,1.29,6.32,6.32,0,0,0,4.54-1.82A5.88,5.88,0,0,0,66,21.09,4.46,4.46,0,0,0,64.72,18a12,12,0,0,0-3.11-2.36l-3.66-2a11.75,11.75,0,0,1-3.13-2.44,4.72,4.72,0,0,1-1.29-3.25,6,6,0,0,1,2.75-5.12A10.69,10.69,0,0,1,62.52.91a9.52,9.52,0,0,1,4.26,1,3.21,3.21,0,0,1,2,2.92,3.07,3.07,0,0,1-.58,1.92,1.83,1.83,0,0,1-1.55.76C66,7.46,65.61,7.22,65.58,6.74Z"/><path class="cls-1" d="M78.4,28.93a5.09,5.09,0,0,1-4.26-2,7.32,7.32,0,0,1-1.58-4.61c0-3.48.74-6.11,2.2-7.89a7,7,0,0,1,5.7-2.68,4,4,0,0,1,2.67.88A3,3,0,0,1,84.19,15a5.93,5.93,0,0,1-2.42,4.8,9.64,9.64,0,0,1-5.91,2,6.05,6.05,0,0,0,1.27,3.22,3.16,3.16,0,0,0,2.51,1.37,5,5,0,0,0,2.58-.67,7.37,7.37,0,0,0,2.11-1.91,27.81,27.81,0,0,0,3.44-6c.26-.58.46-1,.6-1.25s.3-.38.48-.38.26.13.26.38q0,2.4-2.92,7.18Q83,28.94,78.4,28.93Zm-2.54-8.22A7.46,7.46,0,0,0,80,18.89a4.76,4.76,0,0,0,1.32-3.49c0-1.44-.47-2.15-1.39-2.15-1.12,0-2.06.77-2.82,2.32A12.4,12.4,0,0,0,75.86,20.71Z"/><path class="cls-1" d="M90.07,28.93a6.65,6.65,0,0,1-1.94-.26,2.42,2.42,0,0,1-1.08-.5c-.31-.38-.47-2.37-.47-6A119.71,119.71,0,0,1,87.77,7.6q1-7.6,4.69-7.6A1.29,1.29,0,0,1,93.7.93a4.64,4.64,0,0,1,.39,1.8q0,6.21-3.78,13.91-.15,4-.15,6.91c0,2,.18,2.95.53,2.95.54,0,1.29-.71,2.25-2a30.13,30.13,0,0,0,2.84-5.09c.94-2.07,1.52-3.11,1.72-3.11s.32.13.32.38a11.69,11.69,0,0,1-1.39,4.26Q92.65,28.94,90.07,28.93ZM92.89,3.16c0-1-.13-1.53-.38-1.53q-1.44,0-2.11,11.9Q92.89,7,92.89,3.16Z"/><path class="cls-1" d="M100.78,28.93a5.1,5.1,0,0,1-4.26-2A7.31,7.31,0,0,1,95,22.29q0-5.22,2.19-7.89a7,7,0,0,1,5.7-2.68,4,4,0,0,1,2.67.88A3,3,0,0,1,106.57,15a5.93,5.93,0,0,1-2.42,4.8,9.64,9.64,0,0,1-5.91,2,6.13,6.13,0,0,0,1.27,3.22A3.16,3.16,0,0,0,102,26.45a5,5,0,0,0,2.59-.67,7.48,7.48,0,0,0,2.1-1.91,27.81,27.81,0,0,0,3.44-6c.26-.58.46-1,.6-1.25s.3-.38.48-.38.26.13.26.38q0,2.4-2.91,7.18Q105.42,28.94,100.78,28.93Zm-2.54-8.22a7.43,7.43,0,0,0,4.14-1.82,4.76,4.76,0,0,0,1.32-3.49c0-1.44-.47-2.15-1.39-2.15-1.12,0-2.06.77-2.82,2.32A12.4,12.4,0,0,0,98.24,20.71Z"/><path class="cls-1" d="M117.52,17.07l.38-2.44a1.5,1.5,0,0,0-.33-1,1,1,0,0,0-.86-.43c-1.18,0-2.2.88-3.07,2.65a11.66,11.66,0,0,0-1.29,5.1,7,7,0,0,0,1,3.94,2.91,2.91,0,0,0,2.46,1.51,5.07,5.07,0,0,0,2.61-.67,7.48,7.48,0,0,0,2.1-1.91,27.81,27.81,0,0,0,3.44-6c.26-.58.46-1,.6-1.25s.31-.38.48-.38.26.13.26.38a8.63,8.63,0,0,1-1.1,3.78,37.44,37.44,0,0,1-1.84,3.37,17.91,17.91,0,0,1-1.89,2.47,7.67,7.67,0,0,1-6,2.67A4.8,4.8,0,0,1,110.37,27,6.9,6.9,0,0,1,109,22.86q0-5.44,2.37-8.3a7.46,7.46,0,0,1,6-2.84,3.47,3.47,0,0,1,2.41.79,2.35,2.35,0,0,1,.89,1.79,4.71,4.71,0,0,1-.67,2.77,2,2,0,0,1-1.63.91C117.79,18,117.52,17.68,117.52,17.07Z"/><path class="cls-1" d="M133.35,20.9q-3.78,8-6.39,8c-1.73,0-2.75-.2-3.06-.62s-.45-1.78-.45-4.11.22-5.69.67-10.09c-1.6-.32-2.44-1-2.54-2,0-.51.34-.77,1-.77a3.85,3.85,0,0,1,1.77.39c.28-2.3.62-4.63,1-7a3.3,3.3,0,0,1,.91-1.72,2.12,2.12,0,0,1,1.48-.81c.42,0,.62.65.62,2,0,.61-.22,3.39-.67,8.37a12.1,12.1,0,0,0,2.85-1,8.24,8.24,0,0,1,1.84-.72c.58,0,.86.18.86.53s-.56.76-1.77,1.32A18,18,0,0,1,127.56,14Q127,21,127,24.58q0,1.92.57,1.92c.58,0,1.34-.71,2.3-2a29.11,29.11,0,0,0,2.84-5.1c.94-2.08,1.52-3.13,1.72-3.13s.32.13.32.38A11.69,11.69,0,0,1,133.35,20.9Z"/><path class="cls-1" d="M161.37,20.8a14.94,14.94,0,0,0,1-1.67c1-1.82,1.63-2.73,1.84-2.73s.31.13.31.39q0,2.34-2.44,5.93-4.39,6.45-11.71,6.45a7.69,7.69,0,0,1-3.78-1,7.8,7.8,0,0,1-2.73-2.44,11,11,0,0,1-2.06-6.31q0-8.32,4.33-13.42T156.35,1A5.24,5.24,0,0,1,160,2.27a4.32,4.32,0,0,1,1.44,3.33,7.31,7.31,0,0,1-1,3.73,2.86,2.86,0,0,1-2.41,1.72c-.94,0-1.41-.26-1.41-.77a3.25,3.25,0,0,1,.93-2,3.4,3.4,0,0,0,.93-2.2q0-3.39-3.61-3.39t-6.53,4.83a19,19,0,0,0-2.91,9.94,10.38,10.38,0,0,0,2,6.29,6.55,6.55,0,0,0,5.64,2.75Q157.41,26.54,161.37,20.8Z"/><path class="cls-1" d="M176.44,18.32a13.65,13.65,0,0,0,2.65-1.08l1.13-.69.57-.34a.89.89,0,0,1,.38-.14c.26,0,.38.14.38.43s-.49.79-1.48,1.51a16.59,16.59,0,0,1-3.68,1.93,10.86,10.86,0,0,1-2.54,6.51,7.89,7.89,0,0,1-6.26,2.48,5.11,5.11,0,0,1-4.54-2.36A9.72,9.72,0,0,1,161.47,21a10.59,10.59,0,0,1,1.89-6,5.64,5.64,0,0,1,4.85-2.82,5.3,5.3,0,0,1,3.18-1,4.42,4.42,0,0,1,3.42,2A8.12,8.12,0,0,1,176.44,18.32Zm-3.11,2.44-1.72.09a5.55,5.55,0,0,1-3.73-1.31,3.8,3.8,0,0,1-1.53-2.9,6.47,6.47,0,0,1,.52-2.72q-2.06,1.62-2.05,6.41a10.3,10.3,0,0,0,1,4.37,3.16,3.16,0,0,0,3,2.08A3.63,3.63,0,0,0,172,25,8.87,8.87,0,0,0,173.33,20.76Zm-3-7.94a1.34,1.34,0,0,0-1.19.69,2.79,2.79,0,0,0-.43,1.51A3.67,3.67,0,0,0,170,17.89,4.12,4.12,0,0,0,172.8,19h.58a14.46,14.46,0,0,0-.79-4.26C172.13,13.46,171.38,12.82,170.36,12.82Z"/><path class="cls-1" d="M182.37,28.93a6.65,6.65,0,0,1-1.94-.26,2.42,2.42,0,0,1-1.08-.5c-.31-.38-.47-2.37-.47-6A119.71,119.71,0,0,1,180.07,7.6q1-7.6,4.69-7.6A1.29,1.29,0,0,1,186,.93a4.62,4.62,0,0,1,.38,1.8q0,6.21-3.77,13.91-.15,4-.15,6.91c0,2,.18,2.95.53,2.95.54,0,1.29-.71,2.25-2a30.13,30.13,0,0,0,2.84-5.09c.94-2.07,1.52-3.11,1.72-3.11s.32.13.32.38a11.69,11.69,0,0,1-1.39,4.26Q185,28.94,182.37,28.93Zm2.82-25.77c0-1-.13-1.53-.38-1.53q-1.44,0-2.11,11.9Q185.19,7,185.19,3.16Z"/><path class="cls-1" d="M202.21,18.32a13.81,13.81,0,0,0,2.66-1.08l1.12-.69.58-.34a.85.85,0,0,1,.38-.14c.25,0,.38.14.38.43s-.49.79-1.48,1.51a16.81,16.81,0,0,1-3.68,1.93,10.92,10.92,0,0,1-2.54,6.51,7.89,7.89,0,0,1-6.26,2.48,5.14,5.14,0,0,1-4.55-2.36A9.79,9.79,0,0,1,187.25,21a10.58,10.58,0,0,1,1.88-6A5.66,5.66,0,0,1,194,12.2a5.3,5.3,0,0,1,3.18-1,4.42,4.42,0,0,1,3.42,2A8.12,8.12,0,0,1,202.21,18.32Zm-3.1,2.44-1.73.09a5.57,5.57,0,0,1-3.73-1.31,3.8,3.8,0,0,1-1.53-2.9,6.47,6.47,0,0,1,.53-2.72q-2.06,1.62-2.06,6.41a10.31,10.31,0,0,0,1,4.37,3.15,3.15,0,0,0,3,2.08A3.65,3.65,0,0,0,197.77,25,9,9,0,0,0,199.11,20.76Zm-3-7.94a1.32,1.32,0,0,0-1.19.69,2.79,2.79,0,0,0-.43,1.51,3.7,3.7,0,0,0,1.21,2.87,4.16,4.16,0,0,0,2.85,1.1h.57a13.85,13.85,0,0,0-.79-4.26C197.9,13.46,197.16,12.82,196.14,12.82Z"/><path class="cls-1" d="M208.81,16.21l2.64-.28a.79.79,0,0,1,.66.43,1.54,1.54,0,0,1,.29.91c0,.31-.1,1.4-.31,3.25a40.9,40.9,0,0,0-.31,4.37c0,1.07.09,1.61.29,1.61.54,0,1.29-.71,2.24-2a29.42,29.42,0,0,0,2.85-5.09c.94-2.07,1.51-3.11,1.72-3.11s.31.13.31.38a11.62,11.62,0,0,1-1.38,4.26q-3.78,8-6.36,8a4.46,4.46,0,0,1-2.83-.76c-.22-.22-.33-1.61-.33-4.16a23.15,23.15,0,0,1,.81-6.55,4.18,4.18,0,0,1-3.87-1.77,3.72,3.72,0,0,1-.58-2.06,4.09,4.09,0,0,1,.48-2,1.49,1.49,0,0,1,1.36-.86,2.09,2.09,0,0,1,1.63.93,3.31,3.31,0,0,1,.74,2.08,4.5,4.5,0,0,1-.67,2.3A1.11,1.11,0,0,0,208.81,16.21Z"/><polygon class="cls-2" points="16.58 14.82 24.87 0.46 8.29 0.46 16.58 14.82"/><polygon class="cls-3" points="16.58 14.82 8.29 29.17 24.87 29.17 16.58 14.82"/><polygon class="cls-4" points="8.29 0.46 0 14.82 16.58 14.82 8.29 0.46"/><polygon class="cls-5" points="24.87 0.46 16.58 14.82 33.15 14.82 24.87 0.46"/><polygon class="cls-6" points="8.29 29.17 16.58 14.82 0 14.82 8.29 29.17"/><polygon class="cls-7" points="24.87 29.17 33.15 14.82 16.58 14.82 24.87 29.17"/></g></g></svg>